<svg width="24" height="22" viewBox="0 0 24 22" fill="none" xmlns="http://www.w3.org/2000/svg">
<path d="M8 6V3.5C8 2.83696 8.26339 2.20107 8.73223 1.73223C9.20106 1.26339 9.83694 1 10.5 1H20.4999C21.1629 1 21.7988 1.26339 22.2677 1.73223C22.7365 2.20107 22.9999 2.83696 22.9999 3.5V18.5C22.9999 19.163 22.7365 19.7989 22.2677 20.2678C21.7988 20.7366 21.1629 21 20.4999 21H11C9.61936 21 8 19.8806 8 18.5V16" stroke="#153D70" stroke-width="2" stroke-linecap="round" stroke-linejoin="round"/>
<path d="M13.9999 16.0005L18.9999 11.0005L13.9999 6.00049M1 11.0005H17.9999" stroke="#153D70" stroke-width="2" stroke-linecap="round" stroke-linejoin="round"/>
</svg>
