<svg width="32" height="22" viewBox="0 0 32 22" fill="none" xmlns="http://www.w3.org/2000/svg">
<path d="M25.7785 5.50042C25.5823 8.04253 23.5619 10.0008 21.3587 10.0008C19.1555 10.0008 17.1318 8.04316 16.9389 5.50042C16.738 2.8558 18.7048 1 21.3587 1C24.0126 1 25.9794 2.90393 25.7785 5.50042Z" stroke="#153D70" stroke-width="2" stroke-linecap="round" stroke-linejoin="round"/>
<path d="M21.3573 13.9995C16.9931 13.9995 12.7963 16.0228 11.7449 19.9632C11.6056 20.4845 11.9558 21.0002 12.5297 21.0002H30.1855C30.7594 21.0002 31.1076 20.4845 30.9704 19.9632C29.919 15.9597 25.7222 13.9995 21.3573 13.9995Z" stroke="#153D70" stroke-width="2" stroke-miterlimit="10"/>
<path d="M12.2532 6.62354C12.0965 8.65373 10.4638 10.2526 8.70392 10.2526C6.94402 10.2526 5.30868 8.65436 5.15466 6.62354C4.99461 4.51147 6.58374 3.00195 8.70392 3.00195C10.8241 3.00195 12.4132 4.55022 12.2532 6.62354Z" stroke="#153D70" stroke-width="2" stroke-linecap="round" stroke-linejoin="round"/>
<path d="M12.6528 14.1254C11.4441 13.6084 10.1128 13.4097 8.70181 13.4097C5.21955 13.4097 1.86452 15.0254 1.02409 18.1726C0.913598 18.5889 1.19352 19.0008 1.65157 19.0008H9.17057" stroke="#153D70" stroke-width="2" stroke-miterlimit="10" stroke-linecap="round"/>
</svg>
