<svg width="40" height="44" viewBox="0 0 40 44" fill="none" xmlns="http://www.w3.org/2000/svg">
<path d="M6.90909 27.0004C9.6203 27.0004 11.8182 24.7619 11.8182 22.0005C11.8182 19.2391 9.6203 17.0005 6.90909 17.0005C4.19787 17.0005 2 19.2391 2 22.0005C2 24.7619 4.19787 27.0004 6.90909 27.0004Z" fill="#FFF5F2" stroke="#CC363B" stroke-width="3" stroke-linecap="round" stroke-linejoin="round"/>
<path d="M33.0917 11.9999C35.8029 11.9999 38.0008 9.76137 38.0008 6.99996C38.0008 4.23856 35.8029 2 33.0917 2C30.3805 2 28.1826 4.23856 28.1826 6.99996C28.1826 9.76137 30.3805 11.9999 33.0917 11.9999Z" fill="#FFF5F2" stroke="#CC363B" stroke-width="3" stroke-linecap="round" stroke-linejoin="round"/>
<path d="M33.0927 42C35.8039 42 38.0018 39.7614 38.0018 37C38.0018 34.2386 35.8039 32 33.0927 32C30.3815 32 28.1836 34.2386 28.1836 37C28.1836 39.7614 30.3815 42 33.0927 42Z" fill="#FFF5F2" stroke="#CC363B" stroke-width="3" stroke-linecap="round" stroke-linejoin="round"/>
<path d="M11.1875 24.4506L28.8132 34.5485L11.1875 24.4506ZM28.8132 9.45068L11.1875 19.5485L28.8132 9.45068Z" fill="#FFF5F2"/>
<path d="M28.8132 9.45068L11.1875 19.5485M11.1875 24.4506L28.8132 34.5485L11.1875 24.4506Z" stroke="#CC363B" stroke-width="3" stroke-linecap="round" stroke-linejoin="round"/>
</svg>
